<mxfile host="app.diagrams.net" agent="Mozilla/5.0 (Windows NT 10.0; Win64; x64) AppleWebKit/537.36 (KHTML, like Gecko) Chrome/134.0.0.0 Safari/537.36" version="26.1.1">
  <diagram name="第 1 页" id="MEf1hSnZfs6FfPPpBzPI">
    <mxGraphModel dx="1434" dy="738" grid="1" gridSize="10" guides="1" tooltips="1" connect="1" arrows="1" fold="1" page="1" pageScale="1" pageWidth="827" pageHeight="1169" math="0" shadow="0">
      <root>
        <mxCell id="0" />
        <mxCell id="1" parent="0" />
        <mxCell id="d-52GcX8oxhA7sWs-mBR-1" value="StarRocks的Co-located Join实现原理" style="text;html=1;strokeColor=none;fillColor=none;align=center;verticalAlign=middle;whiteSpace=wrap;rounded=0;fontSize=24;fontStyle=1" vertex="1" parent="1">
          <mxGeometry x="164" y="30" width="500" height="40" as="geometry" />
        </mxCell>
        <mxCell id="d-52GcX8oxhA7sWs-mBR-2" value="Co-located Join：确保相同键值的数据分布在相同节点上，避免数据移动，实现本地高效连接" style="text;html=1;strokeColor=none;fillColor=none;align=center;verticalAlign=middle;whiteSpace=wrap;rounded=0;fontSize=16;fontStyle=1" vertex="1" parent="1">
          <mxGeometry x="120" y="80" width="590" height="30" as="geometry" />
        </mxCell>
        <mxCell id="d-52GcX8oxhA7sWs-mBR-3" value="表分布策略" style="text;html=1;strokeColor=none;fillColor=none;align=center;verticalAlign=middle;whiteSpace=wrap;rounded=0;fontSize=18;fontStyle=1" vertex="1" parent="1">
          <mxGeometry x="120" y="130" width="240" height="30" as="geometry" />
        </mxCell>
        <mxCell id="d-52GcX8oxhA7sWs-mBR-4" value="同一分布键的数据被分布到相同节点" style="text;html=1;strokeColor=none;fillColor=none;align=left;verticalAlign=middle;whiteSpace=wrap;rounded=0;fontSize=14;fontStyle=1" vertex="1" parent="1">
          <mxGeometry x="120" y="170" width="280" height="30" as="geometry" />
        </mxCell>
        <mxCell id="d-52GcX8oxhA7sWs-mBR-5" value="表A (按OrderID分布)" style="text;html=1;strokeColor=none;fillColor=none;align=center;verticalAlign=middle;whiteSpace=wrap;rounded=0;fontSize=14;fontStyle=1" vertex="1" parent="1">
          <mxGeometry x="200" y="210" width="160" height="30" as="geometry" />
        </mxCell>
        <mxCell id="d-52GcX8oxhA7sWs-mBR-6" value="表B (按OrderID分布)" style="text;html=1;strokeColor=none;fillColor=none;align=center;verticalAlign=middle;whiteSpace=wrap;rounded=0;fontSize=14;fontStyle=1" vertex="1" parent="1">
          <mxGeometry x="480" y="210" width="160" height="30" as="geometry" />
        </mxCell>
        <mxCell id="d-52GcX8oxhA7sWs-mBR-7" value="OrderID 1-100" style="rounded=1;whiteSpace=wrap;html=1;fillColor=#dae8fc;strokeColor=#6c8ebf;fontSize=12;fontStyle=1" vertex="1" parent="1">
          <mxGeometry x="200" y="250" width="120" height="30" as="geometry" />
        </mxCell>
        <mxCell id="d-52GcX8oxhA7sWs-mBR-8" value="OrderID 101-200" style="rounded=1;whiteSpace=wrap;html=1;fillColor=#dae8fc;strokeColor=#6c8ebf;fontSize=12;fontStyle=1" vertex="1" parent="1">
          <mxGeometry x="200" y="300" width="120" height="30" as="geometry" />
        </mxCell>
        <mxCell id="d-52GcX8oxhA7sWs-mBR-9" value="OrderID 201-300" style="rounded=1;whiteSpace=wrap;html=1;fillColor=#dae8fc;strokeColor=#6c8ebf;fontSize=12;fontStyle=1" vertex="1" parent="1">
          <mxGeometry x="200" y="350" width="120" height="30" as="geometry" />
        </mxCell>
        <mxCell id="d-52GcX8oxhA7sWs-mBR-10" value="OrderID 1-100" style="rounded=1;whiteSpace=wrap;html=1;fillColor=#d5e8d4;strokeColor=#82b366;fontSize=12;fontStyle=1" vertex="1" parent="1">
          <mxGeometry x="500" y="250" width="120" height="30" as="geometry" />
        </mxCell>
        <mxCell id="d-52GcX8oxhA7sWs-mBR-11" value="OrderID 101-200" style="rounded=1;whiteSpace=wrap;html=1;fillColor=#d5e8d4;strokeColor=#82b366;fontSize=12;fontStyle=1" vertex="1" parent="1">
          <mxGeometry x="500" y="300" width="120" height="30" as="geometry" />
        </mxCell>
        <mxCell id="d-52GcX8oxhA7sWs-mBR-12" value="OrderID 201-300" style="rounded=1;whiteSpace=wrap;html=1;fillColor=#d5e8d4;strokeColor=#82b366;fontSize=12;fontStyle=1" vertex="1" parent="1">
          <mxGeometry x="500" y="350" width="120" height="30" as="geometry" />
        </mxCell>
        <mxCell id="d-52GcX8oxhA7sWs-mBR-13" value="计算节点 1" style="rounded=1;whiteSpace=wrap;html=1;fillColor=#fff2cc;strokeColor=#d6b656;fontSize=14;fontStyle=1" vertex="1" parent="1">
          <mxGeometry x="340" y="250" width="120" height="30" as="geometry" />
        </mxCell>
        <mxCell id="d-52GcX8oxhA7sWs-mBR-14" value="计算节点 2" style="rounded=1;whiteSpace=wrap;html=1;fillColor=#fff2cc;strokeColor=#d6b656;fontSize=14;fontStyle=1" vertex="1" parent="1">
          <mxGeometry x="340" y="300" width="120" height="30" as="geometry" />
        </mxCell>
        <mxCell id="d-52GcX8oxhA7sWs-mBR-15" value="计算节点 3" style="rounded=1;whiteSpace=wrap;html=1;fillColor=#fff2cc;strokeColor=#d6b656;fontSize=14;fontStyle=1" vertex="1" parent="1">
          <mxGeometry x="340" y="350" width="120" height="30" as="geometry" />
        </mxCell>
        <mxCell id="d-52GcX8oxhA7sWs-mBR-16" value="" style="endArrow=classic;html=1;rounded=1;exitX=1;exitY=0.5;exitDx=0;exitDy=0;entryX=0;entryY=0.5;entryDx=0;entryDy=0;jumpStyle=arc;jumpSize=6;" edge="1" source="d-52GcX8oxhA7sWs-mBR-7" target="d-52GcX8oxhA7sWs-mBR-13" parent="1">
          <mxGeometry width="50" height="50" relative="1" as="geometry">
            <mxPoint x="390" y="320" as="sourcePoint" />
            <mxPoint x="440" y="270" as="targetPoint" />
          </mxGeometry>
        </mxCell>
        <mxCell id="d-52GcX8oxhA7sWs-mBR-17" value="" style="endArrow=classic;html=1;rounded=1;exitX=1;exitY=0.5;exitDx=0;exitDy=0;entryX=0;entryY=0.5;entryDx=0;entryDy=0;jumpStyle=arc;jumpSize=6;" edge="1" source="d-52GcX8oxhA7sWs-mBR-8" target="d-52GcX8oxhA7sWs-mBR-14" parent="1">
          <mxGeometry width="50" height="50" relative="1" as="geometry">
            <mxPoint x="330" y="275" as="sourcePoint" />
            <mxPoint x="350" y="275" as="targetPoint" />
          </mxGeometry>
        </mxCell>
        <mxCell id="d-52GcX8oxhA7sWs-mBR-18" value="" style="endArrow=classic;html=1;rounded=1;exitX=1;exitY=0.5;exitDx=0;exitDy=0;entryX=0;entryY=0.5;entryDx=0;entryDy=0;jumpStyle=arc;jumpSize=6;" edge="1" source="d-52GcX8oxhA7sWs-mBR-9" target="d-52GcX8oxhA7sWs-mBR-15" parent="1">
          <mxGeometry width="50" height="50" relative="1" as="geometry">
            <mxPoint x="330" y="325" as="sourcePoint" />
            <mxPoint x="350" y="325" as="targetPoint" />
          </mxGeometry>
        </mxCell>
        <mxCell id="d-52GcX8oxhA7sWs-mBR-19" value="" style="endArrow=classic;html=1;rounded=1;exitX=0;exitY=0.5;exitDx=0;exitDy=0;entryX=1;entryY=0.5;entryDx=0;entryDy=0;jumpStyle=arc;jumpSize=6;" edge="1" source="d-52GcX8oxhA7sWs-mBR-10" target="d-52GcX8oxhA7sWs-mBR-13" parent="1">
          <mxGeometry width="50" height="50" relative="1" as="geometry">
            <mxPoint x="330" y="375" as="sourcePoint" />
            <mxPoint x="350" y="375" as="targetPoint" />
          </mxGeometry>
        </mxCell>
        <mxCell id="d-52GcX8oxhA7sWs-mBR-20" value="" style="endArrow=classic;html=1;rounded=1;exitX=0;exitY=0.5;exitDx=0;exitDy=0;entryX=1;entryY=0.5;entryDx=0;entryDy=0;jumpStyle=arc;jumpSize=6;" edge="1" source="d-52GcX8oxhA7sWs-mBR-11" target="d-52GcX8oxhA7sWs-mBR-14" parent="1">
          <mxGeometry width="50" height="50" relative="1" as="geometry">
            <mxPoint x="510" y="275" as="sourcePoint" />
            <mxPoint x="470" y="275" as="targetPoint" />
          </mxGeometry>
        </mxCell>
        <mxCell id="d-52GcX8oxhA7sWs-mBR-21" value="" style="endArrow=classic;html=1;rounded=1;exitX=0;exitY=0.5;exitDx=0;exitDy=0;entryX=1;entryY=0.5;entryDx=0;entryDy=0;jumpStyle=arc;jumpSize=6;" edge="1" source="d-52GcX8oxhA7sWs-mBR-12" target="d-52GcX8oxhA7sWs-mBR-15" parent="1">
          <mxGeometry width="50" height="50" relative="1" as="geometry">
            <mxPoint x="510" y="325" as="sourcePoint" />
            <mxPoint x="470" y="325" as="targetPoint" />
          </mxGeometry>
        </mxCell>
        <mxCell id="d-52GcX8oxhA7sWs-mBR-22" value="Co-located Join执行过程" style="text;html=1;strokeColor=none;fillColor=none;align=center;verticalAlign=middle;whiteSpace=wrap;rounded=0;fontSize=18;fontStyle=1" vertex="1" parent="1">
          <mxGeometry x="280" y="410" width="240" height="30" as="geometry" />
        </mxCell>
        <mxCell id="d-52GcX8oxhA7sWs-mBR-23" value="计算节点 1" style="rounded=1;whiteSpace=wrap;html=1;fillColor=#fff2cc;strokeColor=#d6b656;fontSize=14;fontStyle=1" vertex="1" parent="1">
          <mxGeometry x="120" y="470" width="160" height="40" as="geometry" />
        </mxCell>
        <mxCell id="d-52GcX8oxhA7sWs-mBR-24" value="OrderID 1-100&#xa;(表A)" style="shape=cylinder3;whiteSpace=wrap;html=1;boundedLbl=1;backgroundOutline=1;size=15;fillColor=#dae8fc;strokeColor=#6c8ebf;fontSize=12;fontStyle=1" vertex="1" parent="1">
          <mxGeometry x="140" y="530" width="100" height="60" as="geometry" />
        </mxCell>
        <mxCell id="d-52GcX8oxhA7sWs-mBR-25" value="OrderID 1-100&#xa;(表B)" style="shape=cylinder3;whiteSpace=wrap;html=1;boundedLbl=1;backgroundOutline=1;size=15;fillColor=#d5e8d4;strokeColor=#82b366;fontSize=12;fontStyle=1" vertex="1" parent="1">
          <mxGeometry x="160" y="530" width="100" height="60" as="geometry" />
        </mxCell>
        <mxCell id="d-52GcX8oxhA7sWs-mBR-26" value="本地Join" style="rounded=1;whiteSpace=wrap;html=1;fillColor=#e1d5e7;strokeColor=#9673a6;fontSize=12;fontStyle=1" vertex="1" parent="1">
          <mxGeometry x="150" y="610" width="100" height="30" as="geometry" />
        </mxCell>
        <mxCell id="d-52GcX8oxhA7sWs-mBR-27" value="Join结果 1" style="shape=document;whiteSpace=wrap;html=1;boundedLbl=1;fillColor=#e1d5e7;strokeColor=#9673a6;fontSize=12;fontStyle=1" vertex="1" parent="1">
          <mxGeometry x="150" y="660" width="100" height="40" as="geometry" />
        </mxCell>
        <mxCell id="d-52GcX8oxhA7sWs-mBR-28" value="计算节点 2" style="rounded=1;whiteSpace=wrap;html=1;fillColor=#fff2cc;strokeColor=#d6b656;fontSize=14;fontStyle=1" vertex="1" parent="1">
          <mxGeometry x="320" y="470" width="160" height="40" as="geometry" />
        </mxCell>
        <mxCell id="d-52GcX8oxhA7sWs-mBR-29" value="OrderID 101-200&#xa;(表A)" style="shape=cylinder3;whiteSpace=wrap;html=1;boundedLbl=1;backgroundOutline=1;size=15;fillColor=#dae8fc;strokeColor=#6c8ebf;fontSize=12;fontStyle=1" vertex="1" parent="1">
          <mxGeometry x="340" y="530" width="100" height="60" as="geometry" />
        </mxCell>
        <mxCell id="d-52GcX8oxhA7sWs-mBR-30" value="OrderID 101-200&#xa;(表B)" style="shape=cylinder3;whiteSpace=wrap;html=1;boundedLbl=1;backgroundOutline=1;size=15;fillColor=#d5e8d4;strokeColor=#82b366;fontSize=12;fontStyle=1" vertex="1" parent="1">
          <mxGeometry x="360" y="530" width="100" height="60" as="geometry" />
        </mxCell>
        <mxCell id="d-52GcX8oxhA7sWs-mBR-31" value="本地Join" style="rounded=1;whiteSpace=wrap;html=1;fillColor=#e1d5e7;strokeColor=#9673a6;fontSize=12;fontStyle=1" vertex="1" parent="1">
          <mxGeometry x="350" y="610" width="100" height="30" as="geometry" />
        </mxCell>
        <mxCell id="d-52GcX8oxhA7sWs-mBR-32" value="Join结果 2" style="shape=document;whiteSpace=wrap;html=1;boundedLbl=1;fillColor=#e1d5e7;strokeColor=#9673a6;fontSize=12;fontStyle=1" vertex="1" parent="1">
          <mxGeometry x="350" y="660" width="100" height="40" as="geometry" />
        </mxCell>
        <mxCell id="d-52GcX8oxhA7sWs-mBR-33" value="计算节点 3" style="rounded=1;whiteSpace=wrap;html=1;fillColor=#fff2cc;strokeColor=#d6b656;fontSize=14;fontStyle=1" vertex="1" parent="1">
          <mxGeometry x="520" y="470" width="160" height="40" as="geometry" />
        </mxCell>
        <mxCell id="d-52GcX8oxhA7sWs-mBR-34" value="OrderID 201-300&#xa;(表A)" style="shape=cylinder3;whiteSpace=wrap;html=1;boundedLbl=1;backgroundOutline=1;size=15;fillColor=#dae8fc;strokeColor=#6c8ebf;fontSize=12;fontStyle=1" vertex="1" parent="1">
          <mxGeometry x="540" y="530" width="100" height="60" as="geometry" />
        </mxCell>
        <mxCell id="d-52GcX8oxhA7sWs-mBR-35" value="OrderID 201-300&#xa;(表B)" style="shape=cylinder3;whiteSpace=wrap;html=1;boundedLbl=1;backgroundOutline=1;size=15;fillColor=#d5e8d4;strokeColor=#82b366;fontSize=12;fontStyle=1" vertex="1" parent="1">
          <mxGeometry x="560" y="530" width="100" height="60" as="geometry" />
        </mxCell>
        <mxCell id="d-52GcX8oxhA7sWs-mBR-36" value="本地Join" style="rounded=1;whiteSpace=wrap;html=1;fillColor=#e1d5e7;strokeColor=#9673a6;fontSize=12;fontStyle=1" vertex="1" parent="1">
          <mxGeometry x="550" y="610" width="100" height="30" as="geometry" />
        </mxCell>
        <mxCell id="d-52GcX8oxhA7sWs-mBR-37" value="Join结果 3" style="shape=document;whiteSpace=wrap;html=1;boundedLbl=1;fillColor=#e1d5e7;strokeColor=#9673a6;fontSize=12;fontStyle=1" vertex="1" parent="1">
          <mxGeometry x="550" y="660" width="100" height="40" as="geometry" />
        </mxCell>
        <mxCell id="d-52GcX8oxhA7sWs-mBR-38" value="" style="endArrow=classic;html=1;rounded=1;exitX=0.5;exitY=1;exitDx=0;exitDy=0;exitPerimeter=0;entryX=0.5;entryY=0;entryDx=0;entryDy=0;jumpStyle=arc;jumpSize=6;" edge="1" source="d-52GcX8oxhA7sWs-mBR-24" target="d-52GcX8oxhA7sWs-mBR-26" parent="1">
          <mxGeometry width="50" height="50" relative="1" as="geometry">
            <mxPoint x="390" y="520" as="sourcePoint" />
            <mxPoint x="440" y="470" as="targetPoint" />
          </mxGeometry>
        </mxCell>
        <mxCell id="d-52GcX8oxhA7sWs-mBR-39" value="" style="endArrow=classic;html=1;rounded=1;exitX=0.5;exitY=1;exitDx=0;exitDy=0;exitPerimeter=0;entryX=0.5;entryY=0;entryDx=0;entryDy=0;jumpStyle=arc;jumpSize=6;" edge="1" source="d-52GcX8oxhA7sWs-mBR-25" target="d-52GcX8oxhA7sWs-mBR-26" parent="1">
          <mxGeometry width="50" height="50" relative="1" as="geometry">
            <mxPoint x="200" y="600" as="sourcePoint" />
            <mxPoint x="210" y="620" as="targetPoint" />
          </mxGeometry>
        </mxCell>
        <mxCell id="d-52GcX8oxhA7sWs-mBR-40" value="" style="endArrow=classic;html=1;rounded=1;exitX=0.5;exitY=1;exitDx=0;exitDy=0;entryX=0.5;entryY=0;entryDx=0;entryDy=0;jumpStyle=arc;jumpSize=6;" edge="1" source="d-52GcX8oxhA7sWs-mBR-26" target="d-52GcX8oxhA7sWs-mBR-27" parent="1">
          <mxGeometry width="50" height="50" relative="1" as="geometry">
            <mxPoint x="220" y="600" as="sourcePoint" />
            <mxPoint x="210" y="620" as="targetPoint" />
          </mxGeometry>
        </mxCell>
        <mxCell id="d-52GcX8oxhA7sWs-mBR-41" value="" style="endArrow=classic;html=1;rounded=1;exitX=0.5;exitY=1;exitDx=0;exitDy=0;exitPerimeter=0;entryX=0.5;entryY=0;entryDx=0;entryDy=0;jumpStyle=arc;jumpSize=6;" edge="1" source="d-52GcX8oxhA7sWs-mBR-29" target="d-52GcX8oxhA7sWs-mBR-31" parent="1">
          <mxGeometry width="50" height="50" relative="1" as="geometry">
            <mxPoint x="390" y="520" as="sourcePoint" />
            <mxPoint x="440" y="470" as="targetPoint" />
          </mxGeometry>
        </mxCell>
        <mxCell id="d-52GcX8oxhA7sWs-mBR-42" value="" style="endArrow=classic;html=1;rounded=1;exitX=0.5;exitY=1;exitDx=0;exitDy=0;exitPerimeter=0;entryX=0.5;entryY=0;entryDx=0;entryDy=0;jumpStyle=arc;jumpSize=6;" edge="1" source="d-52GcX8oxhA7sWs-mBR-30" target="d-52GcX8oxhA7sWs-mBR-31" parent="1">
          <mxGeometry width="50" height="50" relative="1" as="geometry">
            <mxPoint x="400" y="600" as="sourcePoint" />
            <mxPoint x="410" y="620" as="targetPoint" />
          </mxGeometry>
        </mxCell>
        <mxCell id="d-52GcX8oxhA7sWs-mBR-43" value="" style="endArrow=classic;html=1;rounded=1;exitX=0.5;exitY=1;exitDx=0;exitDy=0;entryX=0.5;entryY=0;entryDx=0;entryDy=0;jumpStyle=arc;jumpSize=6;" edge="1" source="d-52GcX8oxhA7sWs-mBR-31" target="d-52GcX8oxhA7sWs-mBR-32" parent="1">
          <mxGeometry width="50" height="50" relative="1" as="geometry">
            <mxPoint x="420" y="600" as="sourcePoint" />
            <mxPoint x="410" y="620" as="targetPoint" />
          </mxGeometry>
        </mxCell>
        <mxCell id="d-52GcX8oxhA7sWs-mBR-44" value="" style="endArrow=classic;html=1;rounded=1;exitX=0.5;exitY=1;exitDx=0;exitDy=0;exitPerimeter=0;entryX=0.5;entryY=0;entryDx=0;entryDy=0;jumpStyle=arc;jumpSize=6;" edge="1" source="d-52GcX8oxhA7sWs-mBR-34" target="d-52GcX8oxhA7sWs-mBR-36" parent="1">
          <mxGeometry width="50" height="50" relative="1" as="geometry">
            <mxPoint x="390" y="520" as="sourcePoint" />
            <mxPoint x="440" y="470" as="targetPoint" />
          </mxGeometry>
        </mxCell>
        <mxCell id="d-52GcX8oxhA7sWs-mBR-45" value="" style="endArrow=classic;html=1;rounded=1;exitX=0.5;exitY=1;exitDx=0;exitDy=0;exitPerimeter=0;entryX=0.5;entryY=0;entryDx=0;entryDy=0;jumpStyle=arc;jumpSize=6;" edge="1" source="d-52GcX8oxhA7sWs-mBR-35" target="d-52GcX8oxhA7sWs-mBR-36" parent="1">
          <mxGeometry width="50" height="50" relative="1" as="geometry">
            <mxPoint x="600" y="600" as="sourcePoint" />
            <mxPoint x="610" y="620" as="targetPoint" />
          </mxGeometry>
        </mxCell>
        <mxCell id="d-52GcX8oxhA7sWs-mBR-46" value="" style="endArrow=classic;html=1;rounded=1;exitX=0.5;exitY=1;exitDx=0;exitDy=0;entryX=0.5;entryY=0;entryDx=0;entryDy=0;jumpStyle=arc;jumpSize=6;" edge="1" source="d-52GcX8oxhA7sWs-mBR-36" target="d-52GcX8oxhA7sWs-mBR-37" parent="1">
          <mxGeometry width="50" height="50" relative="1" as="geometry">
            <mxPoint x="620" y="600" as="sourcePoint" />
            <mxPoint x="610" y="620" as="targetPoint" />
          </mxGeometry>
        </mxCell>
        <mxCell id="d-52GcX8oxhA7sWs-mBR-47" value="结果合并" style="rounded=1;whiteSpace=wrap;html=1;fillColor=#f8cecc;strokeColor=#b85450;fontSize=14;fontStyle=1" vertex="1" parent="1">
          <mxGeometry x="340" y="730" width="120" height="40" as="geometry" />
        </mxCell>
        <mxCell id="d-52GcX8oxhA7sWs-mBR-48" value="最终Join结果" style="shape=document;whiteSpace=wrap;html=1;boundedLbl=1;fillColor=#f8cecc;strokeColor=#b85450;fontSize=14;fontStyle=1" vertex="1" parent="1">
          <mxGeometry x="320" y="800" width="160" height="60" as="geometry" />
        </mxCell>
        <mxCell id="d-52GcX8oxhA7sWs-mBR-49" value="" style="endArrow=classic;html=1;rounded=1;exitX=0.5;exitY=1;exitDx=0;exitDy=0;entryX=0;entryY=0.5;entryDx=0;entryDy=0;jumpStyle=arc;jumpSize=6;edgeStyle=orthogonalEdgeStyle;" edge="1" source="d-52GcX8oxhA7sWs-mBR-27" target="d-52GcX8oxhA7sWs-mBR-47" parent="1">
          <mxGeometry width="50" height="50" relative="1" as="geometry">
            <mxPoint x="390" y="520" as="sourcePoint" />
            <mxPoint x="440" y="470" as="targetPoint" />
            <Array as="points">
              <mxPoint x="200" y="710" />
              <mxPoint x="200" y="750" />
            </Array>
          </mxGeometry>
        </mxCell>
        <mxCell id="d-52GcX8oxhA7sWs-mBR-50" value="" style="endArrow=classic;html=1;rounded=1;exitX=0.5;exitY=1;exitDx=0;exitDy=0;entryX=0.5;entryY=0;entryDx=0;entryDy=0;jumpStyle=arc;jumpSize=6;" edge="1" source="d-52GcX8oxhA7sWs-mBR-32" target="d-52GcX8oxhA7sWs-mBR-47" parent="1">
          <mxGeometry width="50" height="50" relative="1" as="geometry">
            <mxPoint x="390" y="520" as="sourcePoint" />
            <mxPoint x="440" y="470" as="targetPoint" />
          </mxGeometry>
        </mxCell>
        <mxCell id="d-52GcX8oxhA7sWs-mBR-51" value="" style="endArrow=classic;html=1;rounded=1;exitX=0.5;exitY=1;exitDx=0;exitDy=0;entryX=1;entryY=0.5;entryDx=0;entryDy=0;jumpStyle=arc;jumpSize=6;edgeStyle=orthogonalEdgeStyle;" edge="1" source="d-52GcX8oxhA7sWs-mBR-37" target="d-52GcX8oxhA7sWs-mBR-47" parent="1">
          <mxGeometry width="50" height="50" relative="1" as="geometry">
            <mxPoint x="390" y="520" as="sourcePoint" />
            <mxPoint x="440" y="470" as="targetPoint" />
            <Array as="points">
              <mxPoint x="600" y="710" />
              <mxPoint x="600" y="750" />
            </Array>
          </mxGeometry>
        </mxCell>
        <mxCell id="d-52GcX8oxhA7sWs-mBR-52" value="" style="endArrow=classic;html=1;rounded=1;exitX=0.5;exitY=1;exitDx=0;exitDy=0;entryX=0.5;entryY=0;entryDx=0;entryDy=0;jumpStyle=arc;jumpSize=6;" edge="1" source="d-52GcX8oxhA7sWs-mBR-47" target="d-52GcX8oxhA7sWs-mBR-48" parent="1">
          <mxGeometry width="50" height="50" relative="1" as="geometry">
            <mxPoint x="390" y="520" as="sourcePoint" />
            <mxPoint x="440" y="470" as="targetPoint" />
          </mxGeometry>
        </mxCell>
        <mxCell id="d-52GcX8oxhA7sWs-mBR-53" value="StarRocks Co-located Join与Spark对比" style="text;html=1;strokeColor=none;fillColor=none;align=left;verticalAlign=middle;whiteSpace=wrap;rounded=0;fontSize=16;fontStyle=1" vertex="1" parent="1">
          <mxGeometry x="140" y="880" width="280" height="30" as="geometry" />
        </mxCell>
        <mxCell id="d-52GcX8oxhA7sWs-mBR-54" value="" style="rounded=1;whiteSpace=wrap;html=1;fillColor=#f5f5f5;strokeColor=#666666;fontSize=12;fontColor=#333333;dashed=1;strokeWidth=1;opacity=50;" vertex="1" parent="1">
          <mxGeometry x="140" y="920" width="540" height="120" as="geometry" />
        </mxCell>
        <mxCell id="d-52GcX8oxhA7sWs-mBR-55" value="1. 数据局部性：StarRocks将相同键的数据存储在同一节点，而Spark需要通过Shuffle将数据重分布" style="text;html=1;strokeColor=none;fillColor=none;align=left;verticalAlign=middle;whiteSpace=wrap;rounded=0;fontSize=12;fontStyle=1" vertex="1" parent="1">
          <mxGeometry x="150" y="930" width="520" height="20" as="geometry" />
        </mxCell>
        <mxCell id="d-52GcX8oxhA7sWs-mBR-56" value="2. 网络传输：Co-located Join几乎不需要网络传输，而Spark的Sort Merge Join或Shuffle Hash Join需要大量数据移动" style="text;html=1;strokeColor=none;fillColor=none;align=left;verticalAlign=middle;whiteSpace=wrap;rounded=0;fontSize=12;fontStyle=1" vertex="1" parent="1">
          <mxGeometry x="150" y="960" width="520" height="20" as="geometry" />
        </mxCell>
        <mxCell id="d-52GcX8oxhA7sWs-mBR-57" value="3. 性能优势：在表按相同键分布的情况下，Co-located Join性能远优于传统Join策略" style="text;html=1;strokeColor=none;fillColor=none;align=left;verticalAlign=middle;whiteSpace=wrap;rounded=0;fontSize=12;fontStyle=1" vertex="1" parent="1">
          <mxGeometry x="150" y="990" width="520" height="20" as="geometry" />
        </mxCell>
        <mxCell id="d-52GcX8oxhA7sWs-mBR-58" value="4. 适用场景：适合多表按相同键分布，并且需要频繁Join的OLAP场景" style="text;html=1;strokeColor=none;fillColor=none;align=left;verticalAlign=middle;whiteSpace=wrap;rounded=0;fontSize=12;fontStyle=1" vertex="1" parent="1">
          <mxGeometry x="150" y="1020" width="520" height="20" as="geometry" />
        </mxCell>
        <mxCell id="d-52GcX8oxhA7sWs-mBR-59" value="关键实现机制：" style="text;html=1;strokeColor=none;fillColor=none;align=left;verticalAlign=middle;whiteSpace=wrap;rounded=0;fontSize=14;fontStyle=1" vertex="1" parent="1">
          <mxGeometry x="680" y="880" width="130" height="30" as="geometry" />
        </mxCell>
        <mxCell id="d-52GcX8oxhA7sWs-mBR-60" value="分布键一致性" style="rounded=1;whiteSpace=wrap;html=1;fillColor=#ffe6cc;strokeColor=#d79b00;fontSize=12;fontStyle=1;align=center;" vertex="1" parent="1">
          <mxGeometry x="680" y="920" width="110" height="30" as="geometry" />
        </mxCell>
        <mxCell id="d-52GcX8oxhA7sWs-mBR-61" value="数据不移动" style="rounded=1;whiteSpace=wrap;html=1;fillColor=#ffe6cc;strokeColor=#d79b00;fontSize=12;fontStyle=1;align=center;" vertex="1" parent="1">
          <mxGeometry x="680" y="960" width="110" height="30" as="geometry" />
        </mxCell>
        <mxCell id="d-52GcX8oxhA7sWs-mBR-62" value="本地Hash Join" style="rounded=1;whiteSpace=wrap;html=1;fillColor=#ffe6cc;strokeColor=#d79b00;fontSize=12;fontStyle=1;align=center;" vertex="1" parent="1">
          <mxGeometry x="680" y="1000" width="110" height="30" as="geometry" />
        </mxCell>
      </root>
    </mxGraphModel>
  </diagram>
</mxfile>
